PathFileType	4	(X/Y/Z)	C:\Users\Biomechanik\SynologyDrive\AlexP\Athlete_03\Athlete_3_25_03_31\Walking_01\marker_experimental.trc
DataRate	CameraRate	NumFrames	NumMarkers	Units	OrigDataRate	OrigDataStartFrame	OrigNumFrames
200.000000	200.000000	4	53	mm	200.000000	119	239
Frame#	Time	GLAB			RFHD			LFHD			C7			T6			SPINMOL			SPINM2			SPINM3			T12			BELTOL			BELT2			BELT3			SACROL			SACR2			SACR3			LTHOL			LTH2			LTH3			LSHAOL			LSHA2			LSHA3			LHEE			LTOE			LM5			RTHOL			RTH2			RTH3			RSHAOL			RSHA2			RSHA3			RHEE			RTOE			RM5			STRN			XIPH			LACR			LUAOL			LUA2			LUA3			LLAOL			LLA2			LLA3			LWRR			LWRU			RACR			RUAOL			RUA2			RUA3			RLAOL			RLA2			RLA3			RWRR			RWRU			
		X1	Y1	Z1	X2	Y2	Z2	X3	Y3	Z3	X4	Y4	Z4	X5	Y5	Z5	X6	Y6	Z6	X7	Y7	Z7	X8	Y8	Z8	X9	Y9	Z9	X10	Y10	Z10	X11	Y11	Z11	X12	Y12	Z12	X13	Y13	Z13	X14	Y14	Z14	X15	Y15	Z15	X16	Y16	Z16	X17	Y17	Z17	X18	Y18	Z18	X19	Y19	Z19	X20	Y20	Z20	X21	Y21	Z21	X22	Y22	Z22	X23	Y23	Z23	X24	Y24	Z24	X25	Y25	Z25	X26	Y26	Z26	X27	Y27	Z27	X28	Y28	Z28	X29	Y29	Z29	X30	Y30	Z30	X31	Y31	Z31	X32	Y32	Z32	X33	Y33	Z33	X34	Y34	Z34	X35	Y35	Z35	X36	Y36	Z36	X37	Y37	Z37	X38	Y38	Z38	X39	Y39	Z39	X40	Y40	Z40	X41	Y41	Z41	X42	Y42	Z42	X43	Y43	Z43	X44	Y44	Z44	X45	Y45	Z45	X46	Y46	Z46	X47	Y47	Z47	X48	Y48	Z48	X49	Y49	Z49	X50	Y50	Z50	X51	Y51	Z51	X52	Y52	Z52	X53	Y53	Z53	

120	0.595	290.4173583984373	1570.02685546875	221.7375183105469	239.5505218505858	1597.233520507812	285.1152954101563	246.1068878173827	1587.08935546875	147.3132476806641	67.8822097778319	1407.324951171875	221.9096069335938	4.980572223663213	1241.455322265625	220.3638305664062	-3.632812023162952	1200.544677734375	199.4003753662109	-11.13916587829602	1193.9375	248.8771057128906	-1.401074290275683	1136.542846679688	216.2066040039062	22.53141403198232	1068.544799804688	218.3743743896484	-14.74284172058116	1030.148071289062	199.1381225585938	-18.80827522277843	1030.377685546875	250.0086669921875	-21.09493827819835	968.7756958007812	222.58935546875	-0.378838121891114	924.080322265625	194.4236297607422	-7.283953666687114	927.2274169921875	246.1238403320312	-23.16590118408212	867.3951416015625	220.8850250244141	181.5618286132812	632.90673828125	47.42376708984379	161.3502807617187	564.7051391601562	80.412712097168	205.631851196289	578.30224609375	61.554069519043	315.4296264648438	302.7828369140625	49.90473937988287	300.9170532226562	226.542465209961	66.69439697265631	344.4263916015625	248.1751556396485	54.44301605224616	380.089599609375	49.00815582275393	136.2113189697266	588.74462890625	113.4942398071289	119.3843078613282	554.3085327148438	69.23890686035159	29.84448051452647	-0.3987437486649741	691.15673828125	413.1165771484375	34.51906204223621	621.64208984375	428.1528625488281	-8.573510169983024	631.01806640625	404.1494445800781	-135.3741760253907	368.324951171875	399.7713928222656	-133.2253875732423	289.3418579101562	396.6687927246094	-171.4703369140626	319.6212463378906	385.2815246582031	-289.4662475585938	134.0530853271484	278.6144714355468	-104.9557342529297	42.62734603881835	285.0623474121094	-150.3931274414063	41.54552841186523	389.5535888671875	234.7092742919921	1298.95361328125	223.2625122070313	245.3692626953124	1154.394165039062	229.3982086181641	142.5499267578124	1362.356079101562	46.85990142822268	105.5825500488281	1208.284545898438	-51.04090118408201	80.02517700195307	1149.392822265625	-67.43009948730467	128.6496124267578	1146.57958984375	-52.05672454833982	71.47015380859371	948.9251098632812	-97.2304000854492	23.24514961242672	890.072021484375	-75.31717681884766	66.3498153686523	887.6903686523438	-100.4196090698242	66.90635681152341	783.8682861328125	-109.7888488769531	120.3595657348633	773.105224609375	-53.2782287597656	152.6839904785155	1361.734619140625	389.6355895996094	164.9469299316405	1222.819702148438	493.7487792968751	204.846237182617	1170.48828125	502.2618713378907	156.6505432128905	1162.788452148438	519.1080322265625	293.4515686035155	977.9482421875	542.750732421875	373.1793212890623	975.6685791015625	545.4741210937501	341.488067626953	939.6385498046875	531.8657226562501	424.0579223632811	903.1041870117188	519.2347412109376	446.1092834472655	927.7219848632812	444.5025329589844	
121	0.6	297.5094299316405	1569.634155273438	220.2127075195313	246.586959838867	1596.884765625	283.5370178222657	253.2606811523436	1586.6533203125	145.7371368408204	75.12179565429675	1406.827026367188	220.2017364501953	12.35259437561023	1240.933227539062	218.9272003173828	3.745963573455701	1200.002807617188	198.0455627441406	-3.663382053375363	1193.428344726562	247.5133972167969	6.04381847381581	1136.021728515625	214.9265289306641	29.99199295043935	1068.04296875	217.2111358642578	-6.964035034179787	1029.627685546875	197.7627410888672	-10.95394515991222	1029.776489257812	248.5785827636719	-13.32827663421641	968.2457275390625	221.1833648681641	7.061559677123931	923.5068359375	193.5833129882812	0.2030735760926183	926.5487670898438	245.2915496826172	-15.48782730102548	866.7003784179688	219.972900390625	190.6335906982422	633.5344848632812	46.07043075561527	169.9838409423828	565.005126953125	78.10454559326175	214.5933685302734	578.8434448242188	60.04785156250004	322.0567932128906	302.7986450195312	49.43489456176763	306.6671752929688	226.8303833007813	66.42005157470709	350.3731689453125	247.892562866211	54.11749649047858	382.7866821289062	49.53071594238283	136.3311614990235	592.7120361328125	108.8565521240235	119.519142150879	557.1676635742188	65.59252929687503	30.07301902771006	7.130248069763065	690.6571044921875	412.4178466796875	41.90894317626942	621.1765747070312	427.6806030273438	-1.111080765724295	630.5451049804688	403.5386657714844	-129.423797607422	369.3377685546875	400.0524597167969	-128.3637695312501	290.3427124023438	396.8279113769531	-166.210418701172	321.1592407226562	385.5592651367187	-286.8735961914063	137.6993408203125	279.2261047363281	-105.0853958129883	42.41382980346679	284.9868774414062	-149.6443328857423	41.83922958374023	389.7342529296875	242.0259552001952	1298.5576171875	221.8902282714844	252.8945312499999	1154.050903320312	228.1910705566407	150.0167694091796	1361.54443359375	45.27214050292972	113.3546142578124	1207.196655273438	-52.33253479003904	87.90290069580072	1148.26416015625	-68.71282958984374	136.4870452880859	1145.510620117188	-53.19517135620114	79.2443466186523	947.9093627929688	-98.26548767089842	30.70562171936031	889.2637329101562	-76.46257781982422	73.85990905761714	886.6929931640625	-101.4444274902344	74.00053405761716	782.9016723632812	-110.8342666625976	127.1561889648437	771.8365478515625	-54.06775665283201	159.7105102539061	1361.38134765625	388.1746520996094	171.5899963378905	1222.333251953125	492.2500610351563	211.3330993652342	1169.9111328125	500.8672485351563	163.0916290283201	1162.2939453125	517.5674438476562	299.3596191406248	977.1327514648438	541.536865234375	379.0517272949217	974.650634765625	544.4887084960939	347.3335876464842	938.7102661132812	530.7778320312501	429.8539428710936	902.0119018554688	518.3949584960939	452.0823669433593	926.5333862304688	443.6638183593751	
122	0.605	304.617218017578	1569.360961914062	218.6754302978516	253.6347656249999	1596.648559570312	281.9469909667969	260.4324645996093	1586.339965820312	144.1488952636719	82.38204193115222	1406.439453125	218.4697723388672	19.74527549743641	1240.520874023438	217.4860229492188	11.1418228149413	1199.57275390625	196.6919555664062	3.830066442489506	1193.038208007812	246.1561737060547	13.50459003448475	1135.614379882812	213.6513671875	37.45688247680653	1067.663452148438	216.0659027099609	0.8659235239027939	1029.250610351562	196.4478607177734	-3.031454801559557	1029.31005859375	247.2107391357422	-5.512362003326515	967.8555297851562	219.8274993896484	14.50492954254141	923.020263671875	192.7883148193359	7.71508741378774	925.9291381835938	244.5069427490234	-7.741652488708589	866.061767578125	219.0887756347656	199.6940155029297	634.3331298828125	44.69059371948246	178.6271209716797	565.4833374023438	75.78872680664065	223.5481262207031	579.5519409179688	58.49910354614262	328.6870727539062	303.0192260742188	48.83448410034185	312.3327331542969	227.3381500244141	65.93426513671881	356.2596740722656	247.791748046875	53.67796707153327	385.0677185058594	50.17790603637697	136.401351928711	596.299560546875	104.0732955932618	119.6310653686525	559.59375	61.87800216674808	30.26498031616221	14.84412860870349	690.1185913085938	411.6818542480469	49.52956390380848	620.7007446289062	427.1724548339844	6.576593875884898	630.0320434570312	402.8926086425781	-123.1684799194337	370.37890625	400.3425598144531	-123.223358154297	291.3872985839844	396.9950561523438	-160.6478729248048	322.7486877441406	385.8340759277343	-283.9533996582032	141.5330352783203	279.8240051269531	-105.2146148681641	42.19058609008788	284.8961181640625	-148.835678100586	42.18058395385741	389.9082946777344	249.363067626953	1298.28125	220.4819488525391	260.4489135742186	1153.828735351562	226.9429779052735	157.4998168945312	1360.831176757812	43.65642929077151	121.1671142578124	1206.195190429688	-53.64054870605467	95.82872772216791	1147.216552734375	-70.01014709472655	144.3722534179687	1144.53076171875	-54.34263992309567	87.11843872070308	946.9667358398438	-99.30546569824217	38.28271102905269	888.5156860351562	-77.61790466308594	81.49329376220699	885.7662353515625	-102.4680099487305	81.25283050537107	782.00927734375	-111.8727340698242	134.0955047607421	770.664794921875	-54.83333206176756	166.7795257568358	1361.136840820312	386.6903076171876	178.2262115478514	1221.94140625	490.7334289550782	217.787139892578	1169.406982421875	499.4590454101563	169.4957580566405	1161.895385742188	516.0072631835938	305.1322937011717	976.338623046875	540.30908203125	384.7840576171873	973.6004638671875	543.5150146484376	353.019561767578	937.7698974609375	529.6903686523439	435.4686584472655	900.858154296875	517.5817260742189	457.9000549316405	925.251953125	442.8495178222657	
123	0.61	311.7402343749998	1569.209838867188	217.1280517578126	260.6939392089842	1596.527221679688	280.3476562500001	267.6217956542968	1586.152221679688	142.5511322021485	89.66021728515612	1406.164916992188	216.7181243896485	27.1549720764159	1240.219604492188	216.0437927246094	18.55151176452626	1199.256225585938	195.3433532714844	11.33692932128895	1192.769653320312	244.8089141845703	20.97697639465321	1135.322509765625	212.38623046875	44.9211196899413	1067.409912109375	214.9463653564453	8.734610557556055	1029.02734375	195.2093200683594	4.944537639617812	1028.991455078125	245.9225006103516	2.340253591537377	967.6160278320312	218.5381317138672	21.95072174072256	922.6275634765625	192.040283203125	15.25094699859609	925.3754272460938	243.7714080810547	0.06799562275400389	865.48779296875	218.2331390380859	208.7081146240234	635.2876586914062	43.29067230224613	187.2481384277343	566.1248168945312	73.47364044189456	232.4630126953125	580.4144897460938	56.91890335083012	335.3343505859375	303.4422302246094	48.09049224853522	317.9376220703125	228.060775756836	65.20867156982428	362.1073303222656	247.8762512207032	53.11236190795905	386.9979553222656	50.9294128417969	136.4184112548829	599.5294799804688	99.24281311035161	119.7230606079103	561.6380615234375	58.17697143554691	30.41560173034678	22.74235343933094	689.5396118164062	410.9086608886719	57.38562011718739	620.2150268554688	426.6311645507812	14.4944610595702	629.4757080078125	402.2130432128906	-116.592628479004	371.4482421875	400.6383056640625	-117.7872314453126	292.4767150878906	397.1687622070312	-154.763885498047	324.3889770507812	386.0989990234374	-280.6686706542969	145.5584716796875	280.3936767578124	-105.329444885254	41.96158599853515	284.7876892089844	-147.9629821777345	42.58316802978515	390.0698547363281	256.7168579101561	1298.130249023438	219.0393218994141	268.0269165039061	1153.731567382812	225.6553497314454	164.9953002929687	1360.223266601562	42.01656341552737	129.0176696777343	1205.288818359375	-54.96298980712888	103.8003234863281	1146.258911132812	-71.3191452026367	152.3029022216796	1143.648681640625	-55.49705505371091	95.09049224853511	946.1053466796875	-100.3484649658203	45.97581863403316	887.834716796875	-78.7802276611328	89.24943542480464	884.91748046875	-103.4878997802734	88.66490173339841	781.1983032226562	-112.9019546508789	141.1797790527343	769.5986938476562	-55.5731391906738	173.8898468017577	1361.006591796875	385.1844482421876	184.8575134277342	1221.65087890625	489.1995849609376	224.2099609374998	1168.981689453125	498.0369262695313	175.8644561767576	1161.600952148438	514.4287109375	310.7673339843748	975.5721435546875	539.0675659179689	390.3740234374998	972.5241088867188	542.5535278320314	358.5425720214842	936.8236694335938	528.6036376953126	440.8974609374998	899.6467895507812	516.7955932617189	463.559356689453	923.8818969726562	442.0615844726563	
